<svg t="1727796065696" class="icon" viewBox="0 0 1024 1024" version="1.1" xmlns="http://www.w3.org/2000/svg" p-id="4392" width="200" height="200"><path d="M20.48 30.72h983.04v983.04H20.48z" fill="#FFFFFF" p-id="4393"></path><path d="M210.04288 260.05504a30.72 30.72 0 0 1 41.90208 11.42784l73.3184 128.32768A438.64064 438.64064 0 0 1 512 358.4c60.416 0 118.00576 12.16512 170.3936 34.16064l69.2224-121.07776a30.72 30.72 0 0 1 53.32992 30.47424l-67.584 118.3744a440.36096 440.36096 0 0 1 212.7872 334.39744 30.72 30.72 0 0 1-30.55616 33.75104H104.448a30.72 30.72 0 0 1-30.55616-33.75104c13.5168-136.11008 88.96512-253.952 197.75488-325.0176L198.656 301.95712a30.72 30.72 0 0 1 11.42784-41.90208zM139.8784 727.04h744.2432c-33.50528-174.98112-187.392-307.2-372.16256-307.2-184.7296 0-338.61632 132.21888-372.08064 307.2zM327.68 655.36a40.96 40.96 0 1 0 0-81.92 40.96 40.96 0 0 0 0 81.92z m368.64 0a40.96 40.96 0 1 0 0-81.92 40.96 40.96 0 0 0 0 81.92z" fill="#000000" p-id="4394"></path></svg>